<svg width="24" height="28" viewBox="0 0 24 28" fill="none" xmlns="http://www.w3.org/2000/svg">
<path d="M17.5686 0.0140123C17.5091 -0.0524877 15.3654 0.0402623 13.4999 2.06501C11.6344 4.08801 11.9214 6.40851 11.9634 6.46801C12.0054 6.52751 14.6234 6.62026 16.2946 4.26651C17.9659 1.91276 17.6281 0.0822623 17.5686 0.0140123ZM23.3681 20.5468C23.2841 20.3788 19.2994 18.3873 19.6704 14.5583C20.0414 10.7275 22.6016 9.67751 22.6419 9.56376C22.6821 9.45001 21.5971 8.18126 20.4474 7.53901C19.6032 7.0862 18.6689 6.82678 17.7121 6.77951C17.5231 6.77426 16.8669 6.61326 15.5176 6.98251C14.6286 7.22576 12.6249 8.01326 12.0736 8.04476C11.5206 8.07626 9.87561 7.13126 8.10636 6.88101C6.97411 6.66226 5.77361 7.11026 4.91436 7.45501C4.05686 7.79801 2.42586 8.77451 1.28486 11.3698C0.143864 13.9633 0.740614 18.0723 1.16761 19.3498C1.59461 20.6255 2.26136 22.7168 3.39536 24.2428C4.40336 25.9648 5.74036 27.16 6.29861 27.566C6.85686 27.972 8.43186 28.2415 9.52386 27.6833C10.4024 27.1443 11.9879 26.8345 12.6144 26.8573C13.2391 26.88 14.4711 27.1268 15.7329 27.8005C16.7321 28.1453 17.6771 28.0018 18.6239 27.6168C19.5706 27.23 20.9409 25.7635 22.5404 22.7903C23.1476 21.4078 23.4241 20.6605 23.3681 20.5468Z" fill="#F2F2F2"/>
<path d="M17.5686 0.0140123C17.5091 -0.0524877 15.3654 0.0402623 13.4999 2.06501C11.6344 4.08801 11.9214 6.40851 11.9634 6.46801C12.0054 6.52751 14.6234 6.62026 16.2946 4.26651C17.9659 1.91276 17.6281 0.0822623 17.5686 0.0140123ZM23.3681 20.5468C23.2841 20.3788 19.2994 18.3873 19.6704 14.5583C20.0414 10.7275 22.6016 9.67751 22.6419 9.56376C22.6821 9.45001 21.5971 8.18126 20.4474 7.53901C19.6032 7.0862 18.6689 6.82678 17.7121 6.77951C17.5231 6.77426 16.8669 6.61326 15.5176 6.98251C14.6286 7.22576 12.6249 8.01326 12.0736 8.04476C11.5206 8.07626 9.87561 7.13126 8.10636 6.88101C6.97411 6.66226 5.77361 7.11026 4.91436 7.45501C4.05686 7.79801 2.42586 8.77451 1.28486 11.3698C0.143864 13.9633 0.740614 18.0723 1.16761 19.3498C1.59461 20.6255 2.26136 22.7168 3.39536 24.2428C4.40336 25.9648 5.74036 27.16 6.29861 27.566C6.85686 27.972 8.43186 28.2415 9.52386 27.6833C10.4024 27.1443 11.9879 26.8345 12.6144 26.8573C13.2391 26.88 14.4711 27.1268 15.7329 27.8005C16.7321 28.1453 17.6771 28.0018 18.6239 27.6168C19.5706 27.23 20.9409 25.7635 22.5404 22.7903C23.1476 21.4078 23.4241 20.6605 23.3681 20.5468Z" fill="#F2F2F2"/>
</svg>
