<svg width="55" height="48" viewBox="0 0 55 48" fill="none" xmlns="http://www.w3.org/2000/svg">
<path d="M46.9804 21.228C47.1299 21.3554 47.2486 21.5076 47.3295 21.6757C47.4104 21.8438 47.452 22.0243 47.4517 22.2066C47.4513 22.3889 47.4092 22.5694 47.3276 22.7372C47.2461 22.9051 47.1269 23.057 46.977 23.184L28.6998 38.73C28.3788 39.003 27.9483 39.1558 27.5001 39.1558C27.0519 39.1558 26.6214 39.003 26.3004 38.73L8.02322 23.184C7.87354 23.0568 7.75457 22.9047 7.67334 22.7368C7.59211 22.5688 7.55025 22.3883 7.55025 22.206C7.55025 22.0237 7.59211 21.8432 7.67334 21.6752C7.75457 21.5072 7.87354 21.3552 8.02322 21.228C8.33018 20.9663 8.74225 20.8198 9.17134 20.8198C9.60044 20.8198 10.0125 20.9663 10.3195 21.228L27.5001 35.847L44.6876 21.228C44.9944 20.9672 45.4057 20.8213 45.834 20.8213C46.2623 20.8213 46.6736 20.9672 46.9804 21.228ZM46.9804 9.22798C47.1299 9.35537 47.2486 9.5076 47.3295 9.67568C47.4104 9.84376 47.452 10.0243 47.4517 10.2066C47.4513 10.3889 47.4092 10.5694 47.3276 10.7372C47.2461 10.9051 47.1269 11.057 46.977 11.184L28.6998 26.73C28.3788 27.003 27.9483 27.1558 27.5001 27.1558C27.0519 27.1558 26.6214 27.003 26.3004 26.73L8.02322 11.184C7.87354 11.0568 7.75457 10.9047 7.67334 10.7367C7.59211 10.5688 7.55025 10.3883 7.55025 10.206C7.55025 10.0237 7.59211 9.84318 7.67334 9.67521C7.75457 9.50724 7.87354 9.35517 8.02322 9.22798C8.33018 8.96631 8.74225 8.81982 9.17134 8.81982C9.60044 8.81982 10.0125 8.96631 10.3195 9.22798L27.5001 23.847L44.6876 9.22798C44.9944 8.96721 45.4057 8.82129 45.834 8.82129C46.2623 8.82129 46.6736 8.96721 46.9804 9.22798Z" fill="url(#paint0_linear_46_164)"/>
<defs>
<linearGradient id="paint0_linear_46_164" x1="47.4517" y1="23.9878" x2="7.55025" y2="23.9878" gradientUnits="userSpaceOnUse">
<stop stop-color="#00C5C6"/>
<stop offset="1" stop-color="#008CEC"/>
</linearGradient>
</defs>
</svg>
