<svg width="31" height="56" viewBox="0 0 31 56" fill="none" xmlns="http://www.w3.org/2000/svg">
<path d="M29.4896 1.7485C30.2161 2.52205 30.6242 3.57107 30.6242 4.66488C30.6242 5.75868 30.2161 6.8077 29.4896 7.58125L10.3084 28L29.4896 48.4188C30.1955 49.1967 30.5861 50.2387 30.5772 51.3203C30.5684 52.4019 30.1609 53.4365 29.4424 54.2013C28.724 54.9661 27.7521 55.3999 26.7361 55.4093C25.72 55.4187 24.7412 55.0029 24.0104 54.2515L2.0895 30.9164C1.36305 30.1428 0.954956 29.0938 0.954956 28C0.954956 26.9062 1.36305 25.8572 2.0895 25.0836L24.0104 1.7485C24.7371 0.975182 25.7225 0.540756 26.75 0.540756C27.7775 0.540756 28.763 0.975182 29.4896 1.7485Z" fill="white"/>
</svg>
