<svg width="31" height="56" viewBox="0 0 31 56" fill="none" xmlns="http://www.w3.org/2000/svg">
<path d="M1.51037 1.7485C0.783918 2.52205 0.37582 3.57107 0.37582 4.66488C0.37582 5.75868 0.783918 6.8077 1.51037 7.58125L20.6916 28L1.51037 48.4188C0.804506 49.1967 0.413929 50.2387 0.422756 51.3203C0.431585 52.4019 0.839115 53.4365 1.55757 54.2013C2.27603 54.9661 3.24793 55.3999 4.26394 55.4093C5.27995 55.4187 6.25879 55.0029 6.98962 54.2515L28.9105 30.9164C29.6369 30.1428 30.045 29.0938 30.045 28C30.045 26.9062 29.6369 25.8572 28.9105 25.0836L6.98962 1.7485C6.26295 0.975182 5.2775 0.540756 4.24999 0.540756C3.22248 0.540756 2.23704 0.975182 1.51037 1.7485Z" fill="white"/>
</svg>
