<svg width="147" height="132" viewBox="0 0 147 132" fill="none" xmlns="http://www.w3.org/2000/svg">
<path d="M76.271 130C111.691 130 140.405 101.346 140.405 66C140.405 30.6538 111.691 2 76.271 2C40.8508 2 12.137 30.6538 12.137 66C12.137 101.346 40.8508 130 76.271 130Z" stroke="url(#paint0_linear_46_96)" stroke-width="3"/>
<path d="M73.5112 83.4633C69.3734 82.5593 67.5684 78.3776 66.1265 71.2381C65.0432 65.8684 63.9853 60.9928 65.2454 54.9115C66.1262 50.6552 67.9425 46.9465 69.919 44.0422C72.0602 40.8949 74.3265 36.7216 78.0208 37.3091C83.0956 38.1173 90.6064 49.4178 88.1973 63.3356C85.549 78.6247 77.5556 84.3483 73.5112 83.4633Z" fill="url(#paint1_linear_46_96)"/>
<path d="M143.805 30.3783C142.041 30.3783 140.61 31.8056 140.61 33.5664C140.61 35.3271 142.041 36.7545 143.805 36.7545C145.57 36.7545 147 35.3271 147 33.5664C147 31.8056 145.57 30.3783 143.805 30.3783Z" fill="url(#paint2_linear_46_96)"/>
<path d="M4.57448 43.4453C2.92033 43.4453 1.57937 42.1071 1.57937 40.4564C1.57937 38.8057 2.92033 37.4676 4.57448 37.4676C6.22863 37.4676 7.56958 38.8057 7.56958 40.4564C7.56958 42.1071 6.22863 43.4453 4.57448 43.4453Z" fill="url(#paint3_linear_46_96)"/>
<path d="M121.581 57.3928C120.809 57.3928 120.184 56.7684 120.184 55.998C120.184 55.2277 120.809 54.6033 121.581 54.6033C122.353 54.6033 122.979 55.2277 122.979 55.998C122.979 56.7684 122.353 57.3928 121.581 57.3928Z" fill="url(#paint4_linear_46_96)"/>
<path d="M88.2468 114.551C87.2543 114.551 86.4497 113.748 86.4497 112.757C86.4497 111.767 87.2543 110.964 88.2468 110.964C89.2393 110.964 90.0439 111.767 90.0439 112.757C90.0439 113.748 89.2393 114.551 88.2468 114.551Z" fill="#010130"/>
<path d="M18.1477 97.7573C16.7141 97.7573 15.552 96.5976 15.552 95.167C15.552 93.7365 16.7141 92.5768 18.1477 92.5768C19.5813 92.5768 20.7434 93.7365 20.7434 95.167C20.7434 96.5976 19.5813 97.7573 18.1477 97.7573Z" fill="#010130"/>
<path d="M34.0571 35.401C32.9661 35.401 32.0816 34.5184 32.0816 33.4296C32.0816 32.3408 32.9661 31.4581 34.0571 31.4581C35.1482 31.4581 36.0327 32.3408 36.0327 33.4296C36.0327 34.5184 35.1482 35.401 34.0571 35.401Z" fill="#010130"/>
<path d="M54.3801 85.3576C53.1672 85.3576 52.1838 84.3764 52.1838 83.1659C52.1838 81.9555 53.1672 80.9742 54.3801 80.9742C55.5931 80.9742 56.5764 81.9555 56.5764 83.1659C56.5764 84.3764 55.5931 85.3576 54.3801 85.3576Z" fill="#010130"/>
<path d="M11.8915 58.1584C12.1734 59.2084 11.549 60.2877 10.4968 60.5691C9.44454 60.8504 8.363 60.2273 8.08105 59.1773C7.79911 58.1273 8.42355 57.048 9.47576 56.7666C10.528 56.4853 11.6095 57.1084 11.8915 58.1584Z" fill="#010130"/>
<path d="M41.4979 14.1905C40.0487 14.1905 38.874 13.0182 38.874 11.5721C38.874 10.1259 40.0487 8.95361 41.4979 8.95361C42.9471 8.95361 44.1218 10.1259 44.1218 11.5721C44.1218 13.0182 42.9471 14.1905 41.4979 14.1905Z" fill="#010130"/>
<path d="M104.814 94.223C103.7 94.223 102.796 93.5016 102.796 92.6118C102.796 91.7219 103.7 91.0005 104.814 91.0005C105.929 91.0005 106.833 91.7219 106.833 92.6118C106.833 93.5016 105.929 94.223 104.814 94.223Z" fill="#010130"/>
<path d="M108.648 8.15402C109.235 10.3392 107.935 12.5853 105.745 13.1708C103.556 13.7563 101.305 12.4595 100.718 10.2744C100.131 8.08919 101.431 5.84309 103.621 5.25758C105.81 4.67206 108.061 5.96884 108.648 8.15402Z" fill="#010130"/>
<path d="M73.4889 41.8978C77.6266 42.8016 79.4316 46.9835 80.8734 54.1231C81.9568 59.4928 83.0148 64.3683 81.7547 70.4497C80.8738 74.7057 79.0575 78.4146 77.0811 81.3189C74.9399 84.466 72.6736 88.6395 68.9793 88.0518C63.9045 87.2438 56.3937 75.9431 58.8028 62.0255C61.4511 46.7364 69.4444 41.0128 73.4889 41.8978Z" fill="url(#paint5_linear_46_96)"/>
<path d="M3.19481 94.9829C4.95925 94.9829 6.38962 93.5555 6.38962 91.7948C6.38962 90.034 4.95925 88.6066 3.19481 88.6066C1.43037 88.6066 0 90.034 0 91.7948C0 93.5555 1.43037 94.9829 3.19481 94.9829Z" fill="url(#paint6_linear_46_96)"/>
<path d="M142.426 81.9159C144.08 81.9159 145.421 83.254 145.421 84.9047C145.421 86.5554 144.08 87.8936 142.426 87.8936C140.772 87.8936 139.431 86.5554 139.431 84.9047C139.431 83.254 140.772 81.9159 142.426 81.9159Z" fill="url(#paint7_linear_46_96)"/>
<path d="M139.044 47.1767C139.816 47.1767 140.442 47.8011 140.442 48.5715C140.442 49.3418 139.816 49.9662 139.044 49.9662C138.272 49.9662 137.646 49.3418 137.646 48.5715C137.646 47.8011 138.272 47.1767 139.044 47.1767Z" fill="url(#paint8_linear_46_96)"/>
<path d="M58.7534 10.8101C59.7459 10.8101 60.5505 11.613 60.5505 12.6034C60.5505 13.5939 59.7459 14.3968 58.7534 14.3968C57.7609 14.3968 56.9563 13.5939 56.9563 12.6034C56.9563 11.613 57.7609 10.8101 58.7534 10.8101Z" fill="#010130"/>
<path d="M129.564 12.6632C130.998 12.6632 132.16 13.8229 132.16 15.2535C132.16 16.684 130.998 17.8438 129.564 17.8438C128.131 17.8438 126.969 16.684 126.969 15.2535C126.969 13.8229 128.131 12.6632 129.564 12.6632Z" fill="#010130"/>
<path d="M112.943 89.9601C114.034 89.9601 114.919 90.8428 114.919 91.9316C114.919 93.0204 114.034 93.903 112.943 93.903C111.852 93.903 110.968 93.0204 110.968 91.9316C110.968 90.8428 111.852 89.9601 112.943 89.9601Z" fill="#010130"/>
<path d="M92.6201 40.0035C93.8331 40.0035 94.8164 40.9848 94.8164 42.1952C94.8164 43.4056 93.8331 44.3869 92.6201 44.3869C91.4071 44.3869 90.4238 43.4056 90.4238 42.1952C90.4238 40.9848 91.4071 40.0035 92.6201 40.0035Z" fill="#010130"/>
<path d="M135.109 67.2024C134.827 66.1524 135.451 65.0731 136.503 64.7918C137.555 64.5104 138.637 65.1335 138.919 66.1835C139.201 67.2336 138.576 68.3129 137.524 68.5942C136.472 68.8756 135.39 68.2524 135.109 67.2024Z" fill="#010130"/>
<path d="M115.666 114.582C117.115 114.582 118.29 115.754 118.29 117.2C118.29 118.646 117.115 119.819 115.666 119.819C114.217 119.819 113.042 118.646 113.042 117.2C113.042 115.754 114.217 114.582 115.666 114.582Z" fill="#010130"/>
<path d="M42.1857 31.1382C43.3004 31.1382 44.204 31.8596 44.204 32.7494C44.204 33.6392 43.3004 34.3606 42.1857 34.3606C41.0711 34.3606 40.1675 33.6392 40.1675 32.7494C40.1675 31.8596 41.0711 31.1382 42.1857 31.1382Z" fill="#010130"/>
<path d="M36.1125 119.269C35.5258 117.084 36.8253 114.838 39.015 114.252C41.2048 113.667 43.4556 114.964 44.0423 117.149C44.6291 119.334 43.3296 121.58 41.1398 122.166C38.9501 122.751 36.6993 121.454 36.1125 119.269Z" fill="#010130"/>
<path d="M59.9163 115.225H89.559C114.261 115.225 124.142 105.365 124.142 80.7141V51.1335C124.142 26.4829 114.261 16.6227 89.559 16.6227H59.9163C35.2143 16.6227 25.3333 26.4829 25.3333 51.1335V80.7141C25.3333 105.365 35.2143 115.225 59.9163 115.225Z" fill="url(#paint9_linear_46_96)"/>
<path d="M63.1276 60.5501H25.3333M86.3531 60.5505C85.859 64.0509 83.7841 67.0091 80.9186 68.7839V78.5454C80.9186 81.9472 78.1519 84.7081 74.7432 84.7081C71.3342 84.7081 68.5675 81.9472 68.5675 78.5454V68.7839C65.7021 67.0091 63.6271 64.0509 63.133 60.5505C63.0343 60.0083 62.9848 59.4166 62.9848 58.825C62.9848 51.3313 70.0992 45.5137 77.905 47.5843C81.8573 48.6197 85.0686 51.8243 86.106 55.7683C86.5508 57.3953 86.6003 59.0223 86.3531 60.5505V60.5505ZM124.15 60.5508H86.3554H124.15Z" stroke="#1C1B41" stroke-width="4" stroke-miterlimit="10"/>
<defs>
<linearGradient id="paint0_linear_46_96" x1="79.0203" y1="202.481" x2="75.0609" y2="-138.316" gradientUnits="userSpaceOnUse">
<stop stop-color="#010130"/>
<stop offset="1" stop-color="#010130"/>
</linearGradient>
<linearGradient id="paint1_linear_46_96" x1="46.5415" y1="77.1001" x2="120.434" y2="35.2714" gradientUnits="userSpaceOnUse">
<stop stop-color="white"/>
<stop offset="1" stop-color="#EEEEEE"/>
</linearGradient>
<linearGradient id="paint2_linear_46_96" x1="143.805" y1="36.7545" x2="143.805" y2="30.3783" gradientUnits="userSpaceOnUse">
<stop stop-color="#00C5C6"/>
<stop offset="1" stop-color="#008CEC"/>
</linearGradient>
<linearGradient id="paint3_linear_46_96" x1="4.57448" y1="37.4676" x2="4.57448" y2="43.4453" gradientUnits="userSpaceOnUse">
<stop stop-color="#00C5C6"/>
<stop offset="1" stop-color="#008CEC"/>
</linearGradient>
<linearGradient id="paint4_linear_46_96" x1="121.581" y1="54.6033" x2="121.581" y2="57.3928" gradientUnits="userSpaceOnUse">
<stop stop-color="#00C5C6"/>
<stop offset="1" stop-color="#008CEC"/>
</linearGradient>
<linearGradient id="paint5_linear_46_96" x1="100.459" y1="48.261" x2="26.5657" y2="90.0895" gradientUnits="userSpaceOnUse">
<stop stop-color="white"/>
<stop offset="1" stop-color="#EEEEEE"/>
</linearGradient>
<linearGradient id="paint6_linear_46_96" x1="3.19481" y1="88.6066" x2="3.19481" y2="94.9829" gradientUnits="userSpaceOnUse">
<stop stop-color="#00C5C6"/>
<stop offset="1" stop-color="#008CEC"/>
</linearGradient>
<linearGradient id="paint7_linear_46_96" x1="142.426" y1="87.8936" x2="142.426" y2="81.9159" gradientUnits="userSpaceOnUse">
<stop stop-color="#00C5C6"/>
<stop offset="1" stop-color="#008CEC"/>
</linearGradient>
<linearGradient id="paint8_linear_46_96" x1="139.044" y1="49.9662" x2="139.044" y2="47.1767" gradientUnits="userSpaceOnUse">
<stop stop-color="#00C5C6"/>
<stop offset="1" stop-color="#008CEC"/>
</linearGradient>
<linearGradient id="paint9_linear_46_96" x1="74.7377" y1="16.6227" x2="74.7377" y2="115.225" gradientUnits="userSpaceOnUse">
<stop stop-color="#00C5C6"/>
<stop offset="1" stop-color="#008CEC"/>
</linearGradient>
</defs>
</svg>
