<svg width="24" height="24" viewBox="0 0 24 24" fill="none" xmlns="http://www.w3.org/2000/svg">
<path fill-rule="evenodd" clip-rule="evenodd" d="M5.25 2.625C5.25 4.07475 4.07475 5.25 2.625 5.25C1.17525 5.25 0 4.07475 0 2.625C0 1.17525 1.17525 0 2.625 0C4.07475 0 5.25 1.17525 5.25 2.625ZM0 7.5H5.367V24H0V7.5ZM19.986 7.6935C19.967 7.6875 19.9483 7.68134 19.9297 7.67517C19.8923 7.66284 19.855 7.6505 19.815 7.6395C19.743 7.623 19.671 7.6095 19.5975 7.5975C19.3125 7.5405 19.0005 7.5 18.6345 7.5C15.5055 7.5 13.521 9.7755 12.867 10.6545V7.5H7.5V24H12.867V15C12.867 15 16.923 9.351 18.6345 13.5V24H24V12.8655C24 10.3725 22.2915 8.295 19.986 7.6935Z" fill="white"/>
</svg>
