<svg width="148" height="113" viewBox="0 0 148 113" fill="none" xmlns="http://www.w3.org/2000/svg">
<path d="M124.896 32.8337H143.475M99.7049 17.917H135.288H99.7049ZM90.5728 3.00024H109.152H90.5728Z" stroke="#020A3B" stroke-width="3" stroke-linecap="round" stroke-linejoin="round"/>
<path d="M129.04 110.015L112 93" stroke="url(#paint0_linear_46_140)" stroke-width="5" stroke-linecap="round" stroke-linejoin="round"/>
<path d="M126.309 53.2011C126.309 80.9438 103.817 103.402 76.0334 103.402C48.2496 103.402 25.7578 80.9438 25.7578 53.2011C25.7578 25.4584 48.2496 3 76.0334 3" stroke="url(#paint1_linear_46_140)" stroke-width="5" stroke-linecap="round" stroke-linejoin="round"/>
<path fill-rule="evenodd" clip-rule="evenodd" d="M106.452 63.8227V39.1001C106.453 34.8452 103.774 31.0467 99.7559 29.6045L84.308 24.0645C78.9842 22.1553 73.1609 22.1553 67.8371 24.0645L52.3692 29.6145C48.3543 31.0557 45.6767 34.8488 45.6733 39.1001V63.8227C45.6733 76.6686 63.7145 86.1743 72.0106 89.8776C73.2843 90.4504 74.6654 90.7466 76.0624 90.7466C77.4594 90.7466 78.8405 90.4504 80.1143 89.8776C88.4107 86.1743 106.452 76.6483 106.452 63.8227Z" fill="url(#paint2_linear_46_140)"/>
<path d="M87.2016 49.9955L74.4533 62.3305L66.8042 54.9297" stroke="#1C284C" stroke-width="4" stroke-linecap="round" stroke-linejoin="round"/>
<path d="M143.141 67.5464C139.389 69.4049 134.409 67.015 134.409 67.015C134.409 67.015 135.516 61.6133 139.27 59.7573C143.022 57.8987 148 60.2858 148 60.2858C148 60.2858 146.893 65.6878 143.141 67.5464Z" fill="url(#paint3_linear_46_140)"/>
<path d="M6.31042 77.2672C11.6238 80.447 19.2469 77.5074 19.2469 77.5074C19.2469 77.5074 18.2504 69.4133 12.9334 66.2371C7.6201 63.0572 0 65.9933 0 65.9933C0 65.9933 0.996816 74.0873 6.31042 77.2672Z" fill="url(#paint4_linear_46_140)"/>
<path d="M109.264 108.397C107.853 108.397 106.709 107.254 106.709 105.845C106.709 104.436 107.853 103.294 109.264 103.294C110.675 103.294 111.819 104.436 111.819 105.845C111.819 107.254 110.675 108.397 109.264 108.397Z" fill="#020A3B"/>
<path d="M22.7926 99.9433C20.7542 99.9433 19.1018 98.2933 19.1018 96.258C19.1018 94.2226 20.7542 92.5726 22.7926 92.5726C24.831 92.5726 26.4834 94.2226 26.4834 96.258C26.4834 98.2933 24.831 99.9433 22.7926 99.9433Z" fill="#020A3B"/>
<path d="M128.873 86.6641C127.321 86.6641 126.064 85.4084 126.064 83.8594C126.064 82.3104 127.321 81.0547 128.873 81.0547C130.424 81.0547 131.681 82.3104 131.681 83.8594C131.681 85.4084 130.424 86.6641 128.873 86.6641Z" fill="#020A3B"/>
<path d="M144.392 50.3813C142.667 50.3813 141.269 48.9852 141.269 47.2629C141.269 45.5407 142.667 44.1445 144.392 44.1445C146.117 44.1445 147.515 45.5407 147.515 47.2629C147.515 48.9852 146.117 50.3813 144.392 50.3813Z" fill="#020A3B"/>
<path d="M15.8073 44.4934C16.2081 45.9872 15.3203 47.5226 13.8244 47.9228C12.3284 48.3231 10.7907 47.4366 10.3899 45.9429C9.98901 44.4491 10.8768 42.9137 12.3728 42.5134C13.8687 42.1132 15.4064 42.9997 15.8073 44.4934Z" fill="#020A3B"/>
<path d="M24.5297 18.0495C23.8851 18.0495 23.3626 17.5277 23.3626 16.8841C23.3626 16.2405 23.8851 15.7188 24.5297 15.7188C25.1743 15.7188 25.6968 16.2405 25.6968 16.8841C25.6968 17.5277 25.1743 18.0495 24.5297 18.0495Z" fill="#020A3B"/>
<path d="M45.7226 113C44.1378 113 42.853 111.974 42.853 110.708C42.853 109.442 44.1378 108.415 45.7226 108.415C47.3075 108.415 48.5923 109.442 48.5923 110.708C48.5923 111.974 47.3075 113 45.7226 113Z" fill="#020A3B"/>
<defs>
<linearGradient id="paint0_linear_46_140" x1="133" y1="105.5" x2="114.5" y2="93" gradientUnits="userSpaceOnUse">
<stop stop-color="#00C5C6"/>
<stop offset="1" stop-color="#008CEC"/>
</linearGradient>
<linearGradient id="paint1_linear_46_140" x1="76.0334" y1="3" x2="76.0334" y2="103.402" gradientUnits="userSpaceOnUse">
<stop stop-color="#00C5C6"/>
<stop offset="1" stop-color="#008CEC"/>
</linearGradient>
<linearGradient id="paint2_linear_46_140" x1="76.0624" y1="22.6326" x2="76.0624" y2="90.7466" gradientUnits="userSpaceOnUse">
<stop stop-color="#00C5C6"/>
<stop offset="1" stop-color="#008CEC"/>
</linearGradient>
<linearGradient id="paint3_linear_46_140" x1="128.732" y1="73.3435" x2="159.645" y2="48.8551" gradientUnits="userSpaceOnUse">
<stop stop-color="#020839"/>
</linearGradient>
<linearGradient id="paint4_linear_46_140" x1="26.8722" y1="87.503" x2="-15.8236" y2="47.7741" gradientUnits="userSpaceOnUse">
<stop stop-color="#020939"/>
<stop offset="1" stop-color="#020839"/>
</linearGradient>
</defs>
</svg>
