<svg width="114" height="51" viewBox="0 0 114 51" fill="none" xmlns="http://www.w3.org/2000/svg">
<rect x="0.5" y="0.5" width="113" height="50" rx="9.5" fill="#020132"/>
<path d="M47.28 22.182C47.22 22.284 47.157 22.359 47.091 22.407C47.025 22.455 46.941 22.479 46.839 22.479C46.731 22.479 46.608 22.431 46.47 22.335C46.332 22.233 46.158 22.122 45.948 22.002C45.744 21.876 45.498 21.765 45.21 21.669C44.922 21.567 44.577 21.516 44.175 21.516C43.797 21.516 43.464 21.567 43.176 21.669C42.894 21.765 42.657 21.9 42.465 22.074C42.273 22.242 42.126 22.443 42.024 22.677C41.928 22.905 41.88 23.154 41.88 23.424C41.88 23.772 41.967 24.06 42.141 24.288C42.321 24.516 42.555 24.711 42.843 24.873C43.131 25.035 43.458 25.176 43.824 25.296C44.19 25.416 44.565 25.542 44.949 25.674C45.333 25.8 45.708 25.947 46.074 26.115C46.44 26.283 46.767 26.496 47.055 26.754C47.343 27.006 47.574 27.318 47.748 27.69C47.928 28.056 48.018 28.506 48.018 29.04C48.018 29.61 47.919 30.144 47.721 30.642C47.529 31.14 47.247 31.575 46.875 31.947C46.503 32.319 46.044 32.613 45.498 32.829C44.958 33.039 44.343 33.144 43.653 33.144C43.239 33.144 42.837 33.102 42.447 33.018C42.057 32.94 41.688 32.829 41.34 32.685C40.992 32.535 40.665 32.358 40.359 32.154C40.059 31.944 39.789 31.71 39.549 31.452L40.098 30.534C40.152 30.462 40.215 30.402 40.287 30.354C40.365 30.306 40.452 30.282 40.548 30.282C40.674 30.282 40.818 30.348 40.98 30.48C41.148 30.612 41.352 30.759 41.592 30.921C41.838 31.077 42.129 31.221 42.465 31.353C42.807 31.485 43.221 31.551 43.707 31.551C44.103 31.551 44.457 31.5 44.769 31.398C45.081 31.29 45.342 31.14 45.552 30.948C45.768 30.75 45.933 30.513 46.047 30.237C46.161 29.961 46.218 29.655 46.218 29.319C46.218 28.941 46.131 28.632 45.957 28.392C45.783 28.152 45.552 27.951 45.264 27.789C44.976 27.627 44.649 27.489 44.283 27.375C43.917 27.261 43.542 27.144 43.158 27.024C42.774 26.898 42.399 26.754 42.033 26.592C41.667 26.43 41.34 26.22 41.052 25.962C40.764 25.698 40.533 25.371 40.359 24.981C40.185 24.585 40.098 24.099 40.098 23.523C40.098 23.061 40.188 22.614 40.368 22.182C40.548 21.75 40.809 21.369 41.151 21.039C41.499 20.703 41.925 20.436 42.429 20.238C42.933 20.034 43.509 19.932 44.157 19.932C44.883 19.932 45.549 20.049 46.155 20.283C46.767 20.511 47.298 20.841 47.748 21.273L47.28 22.182ZM56.0283 27.411C56.0283 27.063 55.9773 26.742 55.8753 26.448C55.7793 26.154 55.6353 25.899 55.4433 25.683C55.2513 25.467 55.0173 25.299 54.7413 25.179C54.4653 25.059 54.1473 24.999 53.7873 24.999C53.0493 24.999 52.4673 25.212 52.0413 25.638C51.6213 26.064 51.3543 26.655 51.2403 27.411H56.0283ZM57.4773 31.695C57.2613 31.947 57.0123 32.166 56.7303 32.352C56.4483 32.532 56.1483 32.679 55.8303 32.793C55.5123 32.907 55.1823 32.991 54.8403 33.045C54.5043 33.099 54.1713 33.126 53.8413 33.126C53.2113 33.126 52.6263 33.021 52.0863 32.811C51.5523 32.595 51.0873 32.283 50.6913 31.875C50.3013 31.461 49.9953 30.951 49.7733 30.345C49.5573 29.733 49.4493 29.031 49.4493 28.239C49.4493 27.603 49.5483 27.012 49.7463 26.466C49.9443 25.914 50.2263 25.434 50.5923 25.026C50.9643 24.618 51.4173 24.297 51.9513 24.063C52.4853 23.829 53.0853 23.712 53.7513 23.712C54.3093 23.712 54.8223 23.805 55.2903 23.991C55.7643 24.171 56.1723 24.435 56.5143 24.783C56.8563 25.131 57.1233 25.56 57.3153 26.07C57.5133 26.58 57.6123 27.162 57.6123 27.816C57.6123 28.086 57.5823 28.269 57.5223 28.365C57.4623 28.455 57.3513 28.5 57.1893 28.5H51.1953C51.2133 29.046 51.2913 29.523 51.4293 29.931C51.5673 30.333 51.7563 30.669 51.9963 30.939C52.2423 31.209 52.5333 31.41 52.8693 31.542C53.2053 31.674 53.5803 31.74 53.9943 31.74C54.3843 31.74 54.7203 31.695 55.0023 31.605C55.2903 31.515 55.5363 31.419 55.7403 31.317C55.9503 31.209 56.1243 31.11 56.2623 31.02C56.4063 30.93 56.5323 30.885 56.6403 30.885C56.7843 30.885 56.8953 30.939 56.9733 31.047L57.4773 31.695ZM61.1456 25.125C61.3436 24.915 61.5506 24.723 61.7666 24.549C61.9826 24.375 62.2106 24.228 62.4506 24.108C62.6966 23.982 62.9576 23.886 63.2336 23.82C63.5156 23.748 63.8156 23.712 64.1336 23.712C64.6376 23.712 65.0786 23.796 65.4566 23.964C65.8406 24.132 66.1616 24.369 66.4196 24.675C66.6776 24.975 66.8726 25.338 67.0046 25.764C67.1366 26.19 67.2026 26.661 67.2026 27.177V33H65.4386V27.177C65.4386 26.523 65.2886 26.016 64.9886 25.656C64.6886 25.29 64.2296 25.107 63.6116 25.107C63.1616 25.107 62.7386 25.215 62.3426 25.431C61.9526 25.641 61.5896 25.929 61.2536 26.295V33H59.4986V23.856H60.5516C60.7976 23.856 60.9506 23.973 61.0106 24.207L61.1456 25.125ZM75.4659 26.07C75.1779 25.692 74.8659 25.428 74.5299 25.278C74.1999 25.128 73.8279 25.053 73.4139 25.053C72.6099 25.053 71.9859 25.344 71.5419 25.926C71.1039 26.502 70.8849 27.345 70.8849 28.455C70.8849 29.037 70.9329 29.535 71.0289 29.949C71.1309 30.357 71.2749 30.693 71.4609 30.957C71.6529 31.215 71.8869 31.407 72.1629 31.533C72.4389 31.653 72.7509 31.713 73.0989 31.713C73.6089 31.713 74.0499 31.599 74.4219 31.371C74.7939 31.143 75.1419 30.822 75.4659 30.408V26.07ZM77.2299 19.716V33H76.1679C75.9219 33 75.7689 32.883 75.7089 32.649L75.5559 31.596C75.1659 32.058 74.7219 32.43 74.2239 32.712C73.7319 32.988 73.1619 33.126 72.5139 33.126C71.9919 33.126 71.5179 33.024 71.0919 32.82C70.6719 32.616 70.3119 32.319 70.0119 31.929C69.7119 31.533 69.4809 31.044 69.3189 30.462C69.1569 29.88 69.0759 29.211 69.0759 28.455C69.0759 27.777 69.1659 27.147 69.3459 26.565C69.5259 25.983 69.7869 25.479 70.1289 25.053C70.4709 24.627 70.8849 24.294 71.3709 24.054C71.8569 23.808 72.4059 23.685 73.0179 23.685C73.5699 23.685 74.0379 23.775 74.4219 23.955C74.8119 24.135 75.1599 24.39 75.4659 24.72V19.716H77.2299Z" fill="url(#paint0_linear_46_370)"/>
<rect x="0.5" y="0.5" width="113" height="50" rx="9.5" stroke="url(#paint1_linear_46_370)"/>
<defs>
<linearGradient id="paint0_linear_46_370" x1="59" y1="19" x2="59" y2="33" gradientUnits="userSpaceOnUse">
<stop stop-color="#00C5C6"/>
<stop offset="1" stop-color="#008CEC"/>
</linearGradient>
<linearGradient id="paint1_linear_46_370" x1="57" y1="0" x2="57" y2="51" gradientUnits="userSpaceOnUse">
<stop stop-color="#00C5C6"/>
<stop offset="1" stop-color="#008CEC"/>
</linearGradient>
</defs>
</svg>
