<svg width="22" height="22" viewBox="0 0 22 22" fill="none" xmlns="http://www.w3.org/2000/svg">
<path d="M10.9998 0.166748C5.02634 0.166748 0.166504 5.02658 0.166504 11.0001C0.166504 16.9736 5.02634 21.8334 10.9998 21.8334C16.9733 21.8334 21.8332 16.9736 21.8332 11.0001C21.8332 5.02658 16.9733 0.166748 10.9998 0.166748ZM10.9998 19.6667C6.22125 19.6667 2.33317 15.7787 2.33317 11.0001C2.33317 6.2215 6.22125 2.33341 10.9998 2.33341C15.7784 2.33341 19.6665 6.2215 19.6665 11.0001C19.6665 15.7787 15.7784 19.6667 10.9998 19.6667Z" fill="white"/>
<path d="M7.75 16.4166L16.4167 10.9999L7.75 5.58325V16.4166Z" fill="white"/>
</svg>
